<mxfile host="app.diagrams.net" modified="2021-06-20T16:53:40.008Z" agent="5.0 (Windows NT 10.0; Win64; x64) AppleWebKit/537.36 (KHTML, like Gecko) Chrome/91.0.4472.114 Safari/537.36" etag="zcKMfbvD9fxXYCVRgy_C" version="14.7.3" type="github">
  <diagram id="EuIJaIDi4fcamgc8efhS" name="Page-1">
    <mxGraphModel dx="1038" dy="547" grid="1" gridSize="10" guides="1" tooltips="1" connect="1" arrows="1" fold="1" page="1" pageScale="1" pageWidth="1169" pageHeight="827" math="0" shadow="0">
      <root>
        <mxCell id="0" />
        <mxCell id="1" parent="0" />
        <mxCell id="NZEMudIPSB2Ak7qw67Gg-3" value="" style="edgeStyle=orthogonalEdgeStyle;rounded=0;orthogonalLoop=1;jettySize=auto;html=1;" edge="1" parent="1" source="NZEMudIPSB2Ak7qw67Gg-1" target="NZEMudIPSB2Ak7qw67Gg-2">
          <mxGeometry relative="1" as="geometry" />
        </mxCell>
        <mxCell id="NZEMudIPSB2Ak7qw67Gg-1" value="index.html" style="rounded=0;whiteSpace=wrap;html=1;" vertex="1" parent="1">
          <mxGeometry x="180" y="50" width="120" height="60" as="geometry" />
        </mxCell>
        <mxCell id="NZEMudIPSB2Ak7qw67Gg-5" value="" style="edgeStyle=orthogonalEdgeStyle;rounded=0;orthogonalLoop=1;jettySize=auto;html=1;" edge="1" parent="1" source="NZEMudIPSB2Ak7qw67Gg-2" target="NZEMudIPSB2Ak7qw67Gg-4">
          <mxGeometry relative="1" as="geometry" />
        </mxCell>
        <mxCell id="NZEMudIPSB2Ak7qw67Gg-2" value="index.js" style="rounded=0;whiteSpace=wrap;html=1;" vertex="1" parent="1">
          <mxGeometry x="510" y="50" width="120" height="60" as="geometry" />
        </mxCell>
        <mxCell id="NZEMudIPSB2Ak7qw67Gg-7" value="" style="edgeStyle=orthogonalEdgeStyle;rounded=0;orthogonalLoop=1;jettySize=auto;html=1;" edge="1" parent="1" source="NZEMudIPSB2Ak7qw67Gg-4" target="NZEMudIPSB2Ak7qw67Gg-6">
          <mxGeometry relative="1" as="geometry" />
        </mxCell>
        <mxCell id="NZEMudIPSB2Ak7qw67Gg-9" value="" style="edgeStyle=orthogonalEdgeStyle;rounded=0;orthogonalLoop=1;jettySize=auto;html=1;" edge="1" parent="1" source="NZEMudIPSB2Ak7qw67Gg-4" target="NZEMudIPSB2Ak7qw67Gg-8">
          <mxGeometry relative="1" as="geometry" />
        </mxCell>
        <mxCell id="NZEMudIPSB2Ak7qw67Gg-11" value="" style="edgeStyle=orthogonalEdgeStyle;rounded=0;orthogonalLoop=1;jettySize=auto;html=1;" edge="1" parent="1" source="NZEMudIPSB2Ak7qw67Gg-4" target="NZEMudIPSB2Ak7qw67Gg-10">
          <mxGeometry relative="1" as="geometry" />
        </mxCell>
        <mxCell id="NZEMudIPSB2Ak7qw67Gg-4" value="App.jsx" style="rounded=0;whiteSpace=wrap;html=1;" vertex="1" parent="1">
          <mxGeometry x="510" y="190" width="120" height="60" as="geometry" />
        </mxCell>
        <mxCell id="NZEMudIPSB2Ak7qw67Gg-15" value="" style="edgeStyle=orthogonalEdgeStyle;rounded=0;orthogonalLoop=1;jettySize=auto;html=1;" edge="1" parent="1" source="NZEMudIPSB2Ak7qw67Gg-6" target="NZEMudIPSB2Ak7qw67Gg-14">
          <mxGeometry relative="1" as="geometry" />
        </mxCell>
        <mxCell id="NZEMudIPSB2Ak7qw67Gg-6" value="header.jsx" style="rounded=0;whiteSpace=wrap;html=1;" vertex="1" parent="1">
          <mxGeometry x="710" y="190" width="120" height="60" as="geometry" />
        </mxCell>
        <mxCell id="NZEMudIPSB2Ak7qw67Gg-17" value="" style="edgeStyle=orthogonalEdgeStyle;rounded=0;orthogonalLoop=1;jettySize=auto;html=1;" edge="1" parent="1" source="NZEMudIPSB2Ak7qw67Gg-8" target="NZEMudIPSB2Ak7qw67Gg-16">
          <mxGeometry relative="1" as="geometry" />
        </mxCell>
        <mxCell id="NZEMudIPSB2Ak7qw67Gg-8" value="footer.jsx" style="rounded=0;whiteSpace=wrap;html=1;" vertex="1" parent="1">
          <mxGeometry x="310" y="190" width="120" height="60" as="geometry" />
        </mxCell>
        <mxCell id="NZEMudIPSB2Ak7qw67Gg-13" value="" style="edgeStyle=orthogonalEdgeStyle;rounded=0;orthogonalLoop=1;jettySize=auto;html=1;" edge="1" parent="1" source="NZEMudIPSB2Ak7qw67Gg-10" target="NZEMudIPSB2Ak7qw67Gg-12">
          <mxGeometry relative="1" as="geometry" />
        </mxCell>
        <mxCell id="NZEMudIPSB2Ak7qw67Gg-10" value="form.jsx" style="rounded=0;whiteSpace=wrap;html=1;" vertex="1" parent="1">
          <mxGeometry x="510" y="330" width="120" height="60" as="geometry" />
        </mxCell>
        <mxCell id="NZEMudIPSB2Ak7qw67Gg-12" value="form.scss" style="rounded=0;whiteSpace=wrap;html=1;" vertex="1" parent="1">
          <mxGeometry x="510" y="470" width="120" height="60" as="geometry" />
        </mxCell>
        <mxCell id="NZEMudIPSB2Ak7qw67Gg-14" value="header.scss" style="rounded=0;whiteSpace=wrap;html=1;" vertex="1" parent="1">
          <mxGeometry x="710" y="330" width="120" height="60" as="geometry" />
        </mxCell>
        <mxCell id="NZEMudIPSB2Ak7qw67Gg-16" value="footer.scss" style="rounded=0;whiteSpace=wrap;html=1;" vertex="1" parent="1">
          <mxGeometry x="310" y="330" width="120" height="60" as="geometry" />
        </mxCell>
      </root>
    </mxGraphModel>
  </diagram>
</mxfile>
